<svg xmlns="http://www.w3.org/2000/svg" width="1180" height="900" viewBox="0 0 1180 900" font-family="-apple-system,BlinkMacSystemFont,Helvetica,Arial,sans-serif">
<rect width="1180" height="900" fill="#fff"/>
<text x="78" y="30" font-size="19" font-weight="700" fill="#15202b">Heart rate — three sources · 22 mi · Sat 2026-08-22</text>
<text x="78" y="47" font-size="12.5" fill="#5b6b7c">08:11:41–13:46:21 (5h34) · 1-minute medians · devices separated by HealthKit provenance</text>
<line x1="78" y1="507.8" x2="1152" y2="507.8" stroke="#e8edf2"/>
<text x="69" y="511.8" font-size="11.5" fill="#8494a4" text-anchor="end">90</text>
<line x1="78" y1="426.8" x2="1152" y2="426.8" stroke="#e8edf2"/>
<text x="69" y="430.8" font-size="11.5" fill="#8494a4" text-anchor="end">100</text>
<line x1="78" y1="345.7" x2="1152" y2="345.7" stroke="#e8edf2"/>
<text x="69" y="349.7" font-size="11.5" fill="#8494a4" text-anchor="end">110</text>
<line x1="78" y1="264.7" x2="1152" y2="264.7" stroke="#e8edf2"/>
<text x="69" y="268.7" font-size="11.5" fill="#8494a4" text-anchor="end">120</text>
<line x1="78" y1="183.7" x2="1152" y2="183.7" stroke="#e8edf2"/>
<text x="69" y="187.7" font-size="11.5" fill="#8494a4" text-anchor="end">130</text>
<line x1="78" y1="102.6" x2="1152" y2="102.6" stroke="#e8edf2"/>
<text x="69" y="106.6" font-size="11.5" fill="#8494a4" text-anchor="end">140</text>
<line x1="78.0" y1="54" x2="78.0" y2="524" stroke="#e8edf2"/>
<text x="78.0" y="542" font-size="11.5" fill="#8494a4" text-anchor="middle">0h</text>
<line x1="270.5" y1="54" x2="270.5" y2="524" stroke="#e8edf2"/>
<text x="270.5" y="542" font-size="11.5" fill="#8494a4" text-anchor="middle">1h</text>
<line x1="462.9" y1="54" x2="462.9" y2="524" stroke="#e8edf2"/>
<text x="462.9" y="542" font-size="11.5" fill="#8494a4" text-anchor="middle">2h</text>
<line x1="655.4" y1="54" x2="655.4" y2="524" stroke="#e8edf2"/>
<text x="655.4" y="542" font-size="11.5" fill="#8494a4" text-anchor="middle">3h</text>
<line x1="847.9" y1="54" x2="847.9" y2="524" stroke="#e8edf2"/>
<text x="847.9" y="542" font-size="11.5" fill="#8494a4" text-anchor="middle">4h</text>
<line x1="1040.4" y1="54" x2="1040.4" y2="524" stroke="#e8edf2"/>
<text x="1040.4" y="542" font-size="11.5" fill="#8494a4" text-anchor="middle">5h</text>
<text x="26" y="289.0" font-size="12" fill="#5b6b7c" text-anchor="middle" transform="rotate(-90 26 289.0)">heart rate (bpm)</text>
<rect x="78" y="102.6" width="1074" height="162.1" fill="#f5a62312" />
<text x="1146" y="110.7" font-size="10.5" fill="#a86500" text-anchor="end">Zone 2 · 120–140</text>
<path d="M78.0,374.1 L81.2,337.6 L84.4,329.4 L87.6,321.6 L90.8,313.3 L94.0,297.3 L97.2,301.2 L100.5,297.3 L103.7,228.2 L106.9,297.3 L110.1,289.0 L113.3,289.0 L116.5,284.9 L119.7,313.3 L122.9,321.6 L126.1,305.0 L129.3,280.7 L132.5,273.0 L135.7,289.0 L138.9,309.2 L142.2,309.2 L145.4,321.6 L148.6,313.3 L151.8,305.0 L155.0,305.0 L158.2,305.0 L161.4,329.4 L164.6,305.0 L167.8,333.5 L171.0,321.6 L174.2,293.1 L177.4,297.3 L180.7,313.3 L183.9,317.4 L187.1,305.0 L190.3,280.7 L193.5,313.3 L196.7,329.4 L199.9,273.0 L203.1,289.0 L206.3,280.7 L209.5,289.0 L212.7,313.3 L215.9,305.0 L219.1,280.7 L222.4,280.7 L225.6,280.7 L228.8,280.7 L232.0,256.4 L235.2,256.7 L238.4,276.8 L241.6,264.7 L244.8,252.5 L248.0,305.3 L251.2,329.4 L254.4,297.3 L257.6,232.1 L260.8,240.4 L264.1,418.6 L267.3,374.1 L270.5,305.0 L273.7,305.0 L276.9,289.0 L280.1,276.8 L283.3,268.8 L286.5,280.7 L289.7,264.7 L292.9,301.2 L296.1,273.0 L299.3,276.8 L302.6,280.7 L305.8,280.7 L309.0,260.6 L312.2,289.0 L315.4,321.6 L318.6,313.3 L321.8,256.4 L325.0,248.6 L328.2,268.8 L331.4,280.7 L334.6,273.0 L337.8,280.7 L341.0,305.0 L344.3,289.0 L347.5,264.7 L350.7,280.7 L353.9,256.4 L357.1,289.0 L360.3,281.0 L363.5,273.0 L366.7,252.5 L369.9,248.6 L373.1,228.2 L376.3,264.7 L379.5,273.0 L382.7,273.0 L386.0,264.7 L389.2,240.4 L392.4,321.3 L395.6,325.5 L398.8,280.7 L402.0,273.0 L405.2,264.7 L408.4,264.7 L411.6,256.4 L414.8,232.1 L418.0,216.1 L421.2,280.7 L424.5,240.4 L427.7,264.7 L430.9,264.7 L434.1,309.2 L437.3,313.3 L440.5,273.0 L443.7,248.6 L446.9,297.3 L450.1,280.7 L453.3,273.0 L456.5,276.8 L459.7,297.3 L462.9,329.4 L466.2,434.9 L469.4,394.5 L472.6,443.1 L475.8,410.6 L479.0,333.7 L482.2,289.0 L485.4,224.3 L488.6,248.6 L491.8,200.0 L495.0,329.4 L498.2,232.1 L501.4,236.5 L504.6,264.7 L507.9,252.5 L511.1,236.2 L514.3,264.7 L517.5,297.3 L520.7,280.7 L523.9,297.3 L527.1,305.0 L530.3,289.0 L533.5,280.7 L536.7,248.6 L539.9,297.3 L543.1,293.1 L546.4,232.1 L549.6,248.6 L552.8,280.7 L556.0,264.7 L559.2,260.6 L562.4,191.8 L565.6,207.8 L568.8,280.7 L572.0,321.6 L575.2,321.6 L578.4,264.7 L581.6,240.4 L584.8,200.0 L588.1,195.9 L591.3,353.7 L594.5,414.7 L597.7,361.9 L600.9,370.2 L604.1,398.4 L607.3,293.1 L610.5,280.7 L613.7,264.7 L616.9,321.3 L620.1,422.7 L623.3,321.6 L626.5,313.3 L629.8,321.6 L633.0,268.8 L636.2,273.0 L639.4,280.7 L642.6,256.4 L645.8,410.6 L649.0,402.3 L652.2,349.8 L655.4,260.6 L658.6,248.6 L661.8,273.0 L665.0,280.7 L668.3,273.0 L671.5,264.7 L674.7,244.5 L677.9,240.4 L681.1,224.3 L684.3,256.4 L687.5,240.4 L690.7,264.7 L693.9,240.4 L697.1,199.8 L700.3,276.8 L703.5,305.0 L706.7,289.0 L710.0,256.4 L713.2,264.7 L716.4,240.4 L719.6,273.0 L722.8,329.4 L726.0,349.8 L729.2,353.7 L732.4,183.5 L735.6,167.4 L738.8,171.6 L742.0,159.2 L745.2,216.1 L748.4,200.0 L751.7,273.0 L754.9,329.4 L758.1,321.6 L761.3,256.4 L764.5,224.3 L767.7,256.4 L770.9,207.8 L774.1,224.3 L777.3,256.4 L780.5,321.6 L783.7,370.2 L786.9,220.2 L790.2,216.1 L793.4,211.9 L796.6,232.1 L799.8,200.0 L803.0,224.3 L806.2,244.5 L809.4,248.6 L812.6,240.4 L815.8,305.0 L819.0,240.4 L822.2,232.1 L825.4,220.2 L828.6,232.1 L831.9,240.4 L835.1,244.5 L838.3,273.0 L841.5,216.1 L844.7,232.1 L847.9,273.0 L851.1,297.3 L854.3,248.6 L857.5,325.5 L860.7,321.6 L863.9,329.4 L867.1,329.4 L870.3,171.6 L873.6,167.4 L876.8,280.7 L880.0,309.2 L883.2,252.5 L886.4,273.0 L889.6,191.8 L892.8,240.4 L896.0,232.1 L899.2,240.4 L902.4,240.4 L905.6,216.1 L908.8,256.4 L912.1,345.9 L915.3,349.8 L918.5,337.6 L921.7,402.3 L924.9,426.6 L928.1,410.6 L931.3,418.8 L934.5,353.7 L937.7,345.9 L940.9,232.1 L944.1,248.4 L947.3,272.7 L950.5,256.4 L953.8,256.4 L957.0,240.4 L960.2,370.2 L963.4,252.5 L966.6,264.7 L969.8,309.2 L973.0,273.0 L976.2,276.8 L979.4,248.6 L982.6,248.6 L985.8,273.0 L989.0,313.3 L992.2,297.3 L995.5,370.2 L998.7,361.9 L1001.9,353.7 L1005.1,248.6 L1008.3,256.4 L1011.5,289.0 L1014.7,378.0 L1017.9,297.3 L1021.1,305.0 L1024.3,200.0 L1027.5,216.1 L1030.7,240.4 L1033.9,240.4 L1037.2,216.1 L1040.4,248.6 L1043.6,216.1 L1046.8,273.0 L1050.0,337.6 L1053.2,386.2 L1056.4,361.9 L1059.6,333.5 L1062.8,317.4 L1066.0,256.4 L1069.2,273.0 L1072.4,268.8 L1075.7,224.3 L1078.9,224.3 L1082.1,256.4 L1085.3,280.7 L1088.5,264.7 L1091.7,256.4 L1094.9,273.0 L1098.1,256.4 L1101.3,232.1 L1104.5,240.4 L1107.7,248.6 L1110.9,248.6 L1114.1,232.1 L1117.4,232.1 L1120.6,200.0 L1123.8,200.0 L1127.0,199.8 L1130.2,200.0 L1133.4,183.5 L1136.6,200.0 L1139.8,200.0 L1143.0,345.9 L1146.2,374.1 L1149.4,337.6" fill="none" stroke="#c0392b" stroke-width="1.5" opacity="0.85" stroke-linejoin="round"/>
<path d="M78.0,402.3 L81.2,337.6 L84.4,325.5 L87.6,317.4 L90.8,321.6 L94.0,305.0 L97.2,297.3 L100.5,297.3 L103.7,228.2 L106.9,297.3 L110.1,284.9 L113.3,289.0 L116.5,289.0 L119.7,329.4 L122.9,337.6 L126.1,305.0 L129.3,272.7 L132.5,276.8 L135.7,305.0 L138.9,325.5 L142.2,305.0 L145.4,325.5 L148.6,325.5 L151.8,297.3 L155.0,301.2 L158.2,305.0 L161.4,329.4 L164.6,313.3 L167.8,353.7 L171.0,325.5 L174.2,289.0 L177.4,293.1 L180.7,317.4 L183.9,329.4 L187.1,293.1 L190.3,276.8 L193.5,321.6 L196.7,313.3 L199.9,268.8 L203.1,280.7 L206.3,284.9 L209.5,289.0 L212.7,317.2 L215.9,305.0 L219.1,273.0 L222.4,280.7 L225.6,280.7 L228.8,284.9 L232.0,256.4 L235.2,264.7 L238.4,273.0 L241.6,268.8 L244.8,248.6 L248.0,317.4 L251.2,349.8 L254.4,301.2 L257.6,232.1 L260.8,240.4 L264.1,386.2 L267.3,386.2 L270.5,305.0 L273.7,297.3 L276.9,293.1 L280.1,289.0 L283.3,264.7 L286.5,284.9 L289.7,264.7 L292.9,297.3 L296.1,272.7 L299.3,273.0 L302.6,292.9 L305.8,280.7 L309.0,264.7 L312.2,293.1 L315.4,329.4 L318.6,305.3 L321.8,256.4 L325.0,248.6 L328.2,273.0 L331.4,280.7 L334.6,273.0 L337.8,289.0 L341.0,313.3 L344.3,280.7 L347.5,268.8 L350.7,273.0 L353.9,264.7 L357.1,297.3 L360.3,273.0 L363.5,264.7 L366.7,256.4 L369.9,248.6 L373.1,232.1 L376.3,273.0 L379.5,273.0 L382.7,273.0 L386.0,268.8 L389.2,240.4 L392.4,313.3 L395.6,361.9 L398.8,280.7 L402.0,264.7 L405.2,256.4 L408.4,256.4 L411.6,256.4 L414.8,224.3 L418.0,216.1 L421.2,273.0 L424.5,248.6 L427.7,273.0 L430.9,273.0 L434.1,321.6 L437.3,305.0 L440.5,273.0 L443.7,244.5 L446.9,309.2 L450.1,280.7 L453.3,276.8 L456.5,273.0 L459.7,301.2 L462.9,349.8 L466.2,418.8 L469.4,410.6 L472.6,426.6 L475.8,398.4 L479.0,410.6 L482.2,410.6 L485.4,248.4 L488.6,248.6 L491.8,256.4 L495.0,378.0 L498.2,248.6 L501.4,252.5 L504.6,264.7 L507.9,256.4 L511.1,232.1 L514.3,268.8 L517.5,297.3 L520.7,280.7 L523.9,301.2 L527.1,313.3 L530.3,293.1 L533.5,289.0 L536.7,248.6 L539.9,292.9 L543.1,301.2 L546.4,236.2 L549.6,248.6 L552.8,280.7 L556.0,264.7 L559.2,264.7 L562.4,187.6 L565.6,207.8 L568.8,276.8 L572.0,321.6 L575.2,337.6 L578.4,244.5 L581.6,240.4 L584.8,200.0 L588.1,191.8 L591.3,353.7 L594.5,410.6 L597.7,370.2 L600.9,402.3 L604.1,414.7 L607.3,297.0 L610.5,289.0 L613.7,248.6 L616.9,378.0 L620.1,402.3 L623.3,329.4 L626.5,337.6 L629.8,317.4 L633.0,273.0 L636.2,289.0 L639.4,284.9 L642.6,273.0 L645.8,418.8 L649.0,402.3 L652.2,313.3 L655.4,273.0 L658.6,289.0 L661.8,273.0 L665.0,284.9 L668.3,273.0 L671.5,252.5 L674.7,248.6 L677.9,240.4 L681.1,224.3 L684.3,256.4 L687.5,240.4 L690.7,264.7 L693.9,248.6 L697.1,207.8 L700.3,276.8 L703.5,305.0 L706.7,264.7 L710.0,248.4 L713.2,264.7 L716.4,232.1 L719.6,273.0 L722.8,321.6 L726.0,349.8 L729.2,370.2 L732.4,199.8 L735.6,183.5 L738.8,191.8 L742.0,159.2 L745.2,216.1 L748.4,200.0 L751.7,284.9 L754.9,321.6 L758.1,305.0 L761.3,264.7 L764.5,232.1 L767.7,260.6 L770.9,207.8 L774.1,224.3 L777.3,244.5 L780.5,313.3 L783.7,353.7 L786.9,228.2 L790.2,216.1 L793.4,216.1 L796.6,232.1 L799.8,200.0 L803.0,220.2 L806.2,248.6 L809.4,248.6 L812.6,240.4 L815.8,273.0 L819.0,240.4 L822.2,232.1 L825.4,216.1 L828.6,232.1 L831.9,240.4 L835.1,240.4 L838.3,256.4 L841.5,207.8 L844.7,236.2 L847.9,273.0 L851.1,289.0 L854.3,248.6 L857.5,293.1 L860.7,281.0 L863.9,280.7 L867.1,313.3 L870.3,183.5 L873.6,191.8 L876.8,268.8 L880.0,289.0 L883.2,313.3 L886.4,281.0 L889.6,191.8 L892.8,240.4 L896.0,236.2 L899.2,240.4 L902.4,240.4 L905.6,216.1 L908.8,256.4 L912.1,313.3 L915.3,345.9 L918.5,349.8 L921.7,398.4 L924.9,410.6 L928.1,410.6 L931.3,418.8 L934.5,361.9 L937.7,361.9 L940.9,305.3 L944.1,325.5 L947.3,325.5 L950.5,252.5 L953.8,256.4 L957.0,240.4 L960.2,370.0 L963.4,248.6 L966.6,276.8 L969.8,305.0 L973.0,280.7 L976.2,273.0 L979.4,248.6 L982.6,248.6 L985.8,297.3 L989.0,317.4 L992.2,313.3 L995.5,370.2 L998.7,361.9 L1001.9,361.9 L1005.1,280.7 L1008.3,256.4 L1011.5,301.2 L1014.7,361.9 L1017.9,297.3 L1021.1,305.0 L1024.3,207.8 L1027.5,220.2 L1030.7,248.4 L1033.9,240.4 L1037.2,216.1 L1040.4,252.5 L1043.6,224.3 L1046.8,252.5 L1050.0,337.6 L1053.2,374.1 L1056.4,394.5 L1059.6,390.4 L1062.8,321.6 L1066.0,264.7 L1069.2,273.0 L1072.4,273.0 L1075.7,216.1 L1078.9,232.1 L1082.1,256.4 L1085.3,280.7 L1088.5,273.0" fill="none" stroke="#0b5d7a" stroke-width="1.5" opacity="0.85" stroke-linejoin="round"/>
<path d="M78.0,402.4 L81.2,337.6 L84.4,329.5 L87.6,313.3 L90.8,321.4 L94.0,289.0 L97.2,305.2 L100.5,297.1 L103.7,224.2 L106.9,297.1 L110.1,284.9 L113.3,289.0 L116.5,289.0 L119.7,329.5 L122.9,329.5 L126.1,305.2 L129.3,272.8 L132.5,272.8 L135.7,305.2 L138.9,321.4 L142.2,305.2 L145.4,321.4 L148.6,329.5 L151.8,297.1 L155.0,297.1 L158.2,305.2 L161.4,329.5 L164.6,313.3 L167.8,361.9 L171.0,321.4 L174.2,289.0 L177.4,297.1 L180.7,313.3 L183.9,329.5 L187.1,289.0 L190.3,272.8 L193.5,321.4 L196.7,329.5 L199.9,264.7 L203.1,280.9 L206.3,289.0 L209.5,289.0 L212.7,321.4 L215.9,305.2 L219.1,272.8 L222.4,272.8 L225.6,272.8 L228.8,280.9 L232.0,256.6 L235.2,264.7 L238.4,272.8 L241.6,264.7 L244.8,248.5 L248.0,313.3 L251.2,341.7 L254.4,297.1 L257.6,232.3 L260.8,240.4 L264.1,402.4 L267.3,374.1 L270.5,305.2 L273.7,297.1 L276.9,289.0 L280.1,289.0 L283.3,264.7 L286.5,280.9 L289.7,264.7 L292.9,305.2 L296.1,264.7 L299.3,280.9 L302.6,305.2 L305.8,280.9 L309.0,260.6 L312.2,289.0 L315.4,329.5 L318.6,297.1 L321.8,256.6 L325.0,248.5 L328.2,272.8 L331.4,280.9 L334.6,272.8 L337.8,289.0 L341.0,305.2 L344.3,280.9 L347.5,264.7 L350.7,272.8 L353.9,256.6 L357.1,289.0 L360.3,272.8 L363.5,264.7 L366.7,256.6 L369.9,248.5 L373.1,232.3 L376.3,264.7 L379.5,272.8 L382.7,272.8 L386.0,264.7 L389.2,240.4 L392.4,313.3 L395.6,345.7 L398.8,280.9 L402.0,264.7 L405.2,256.6 L408.4,264.7 L411.6,248.5 L414.8,232.3 L418.0,216.1 L421.2,280.9 L424.5,248.5 L427.7,272.8 L430.9,272.8 L434.1,329.5 L437.3,305.2 L440.5,256.6 L443.7,248.5 L446.9,301.2 L450.1,280.9 L453.3,272.8 L456.5,280.9 L459.7,297.1 L462.9,349.8 L466.2,418.7 L469.4,410.6 L472.6,426.8 L475.8,402.4 L479.0,410.6 L482.2,402.4 L485.4,232.3 L488.6,248.5 L491.8,256.6 L495.0,378.1 L498.2,240.4 L501.4,248.5 L504.6,264.7 L507.9,256.6 L511.1,240.4 L514.3,264.7 L517.5,297.1 L520.7,280.9 L523.9,297.1 L527.1,305.2 L530.3,289.0 L533.5,284.9 L536.7,248.5 L539.9,297.1 L543.1,297.1 L546.4,232.3 L549.6,248.5 L552.8,272.8 L556.0,264.7 L559.2,264.7 L562.4,183.7 L565.6,208.0 L568.8,272.8 L572.0,313.3 L575.2,329.5 L578.4,248.5 L581.6,232.3 L584.8,195.8 L588.1,191.8 L591.3,337.6 L594.5,410.6 L597.7,370.0 L600.9,402.4 L604.1,410.6 L607.3,280.9 L610.5,289.0 L613.7,248.5 L616.9,378.1 L620.1,402.4 L623.3,329.5 L626.5,337.6 L629.8,321.4 L633.0,272.8 L636.2,289.0 L639.4,280.9 L642.6,272.8 L645.8,418.7 L649.0,378.1 L652.2,313.3 L655.4,272.8 L658.6,289.0 L661.8,264.7 L665.0,280.9 L668.3,272.8 L671.5,248.5 L674.7,248.5 L677.9,240.4 L681.1,224.2 L684.3,256.6 L687.5,248.5 L690.7,264.7 L693.9,240.4 L697.1,199.9 L700.3,272.8 L703.5,297.1 L706.7,272.8 L710.0,248.5 L713.2,264.7 L716.4,232.3 L719.6,272.8 L722.8,321.4 L726.0,353.8 L729.2,361.9 L732.4,175.6 L735.6,183.7 L738.8,175.6 L742.0,159.3 L745.2,216.1 L748.4,199.9 L751.7,289.0 L754.9,313.3 L758.1,297.1 L761.3,264.7 L764.5,232.3 L767.7,256.6 L770.9,208.0 L774.1,224.2 L777.3,248.5 L780.5,313.3 L783.7,345.7 L786.9,224.2 L790.2,216.1 L793.4,216.1 L796.6,232.3 L799.8,199.9 L803.0,224.2 L806.2,248.5 L809.4,248.5 L812.6,240.4 L815.8,280.9 L819.0,240.4 L822.2,232.3 L825.4,216.1 L828.6,224.2 L831.9,240.4 L835.1,248.5 L838.3,256.6 L841.5,208.0 L844.7,232.3 L847.9,272.8 L851.1,284.9 L854.3,248.5 L857.5,289.0 L860.7,272.8 L863.9,272.8 L867.1,313.3 L870.3,183.7 L873.6,191.8 L876.8,264.7 L880.0,289.0 L883.2,313.3 L886.4,248.5 L889.6,191.8 L892.8,240.4 L896.0,232.3 L899.2,240.4 L902.4,240.4 L905.6,216.1 L908.8,256.6 L912.1,313.3 L915.3,337.6 L918.5,353.8 L921.7,402.4 L924.9,406.5 L928.1,402.4 L931.3,410.6 L934.5,361.9 L937.7,361.9 L940.9,301.2 L944.1,329.5 L947.3,305.2 L950.5,256.6 L953.8,256.6 L957.0,248.5 L960.2,353.8 L963.4,248.5 L966.6,289.0 L969.8,305.2 L973.0,272.8 L976.2,272.8 L979.4,248.5 L982.6,248.5 L985.8,297.1 L989.0,313.3 L992.2,305.2 L995.5,370.0 L998.7,361.9 L1001.9,361.9 L1005.1,272.8 L1008.3,256.6 L1011.5,313.3 L1014.7,361.9 L1017.9,297.1 L1021.1,305.2 L1024.3,208.0 L1027.5,216.1 L1030.7,248.5 L1033.9,240.4 L1037.2,224.2 L1040.4,248.5 L1043.6,224.2 L1046.8,248.5 L1050.0,329.5 L1053.2,378.1 L1056.4,394.3 L1059.6,386.2 L1062.8,321.4 L1066.0,264.7 L1069.2,272.8 L1072.4,268.7 L1075.7,216.1 L1078.9,232.3 L1082.1,256.6 L1085.3,280.9 L1088.5,264.7 L1091.7,256.6 L1094.9,272.8 L1098.1,256.6 L1101.3,232.3 L1104.5,244.4 L1107.7,248.5 L1110.9,248.5 L1114.1,232.3 L1117.4,232.3 L1120.6,199.9 L1123.8,199.9 L1127.0,208.0 L1130.2,208.0 L1133.4,183.7 L1136.6,195.8 L1139.8,199.9 L1143.0,337.6 L1146.2,366.0 L1149.4,321.4" fill="none" stroke="#111827" stroke-width="2.4" opacity="1" stroke-linejoin="round"/>
<rect x="78" y="54" width="1074" height="470" fill="none" stroke="#cbd5e0"/>
<rect x="84" y="57" width="292" height="70" fill="#ffffffe8" stroke="#e3e9ef" rx="6"/>
<line x1="92" y1="72" x2="118" y2="72" stroke="#111827" stroke-width="2.6"/>
<text x="126" y="76" font-size="12" fill="#15202b">Polar H10 chest strap  — reference</text>
<line x1="92" y1="92" x2="118" y2="92" stroke="#0b5d7a" stroke-width="1.8"/>
<text x="126" y="96" font-size="12" fill="#15202b">Apple Watch Ultra 2  (Watch7,11)</text>
<line x1="92" y1="112" x2="118" y2="112" stroke="#c0392b" stroke-width="1.8"/>
<text x="126" y="116" font-size="12" fill="#15202b">Apple Watch Series 10  (Watch7,5)</text>
<text x="78" y="594" font-size="13.5" font-weight="700" fill="#15202b">Absolute error vs Polar — 5-minute means</text>
<line x1="78" y1="800.0" x2="1152" y2="800.0" stroke="#e8edf2"/>
<text x="69" y="804.0" font-size="11" fill="#8494a4" text-anchor="end">0</text>
<line x1="78" y1="736.7" x2="1152" y2="736.7" stroke="#e8edf2"/>
<text x="69" y="740.7" font-size="11" fill="#8494a4" text-anchor="end">2</text>
<line x1="78" y1="673.3" x2="1152" y2="673.3" stroke="#e8edf2"/>
<text x="69" y="677.3" font-size="11" fill="#8494a4" text-anchor="end">4</text>
<line x1="78" y1="610.0" x2="1152" y2="610.0" stroke="#e8edf2"/>
<text x="69" y="614.0" font-size="11" fill="#8494a4" text-anchor="end">6</text>
<line x1="78.0" y1="610" x2="78.0" y2="800" stroke="#e8edf2"/>
<text x="78.0" y="818" font-size="11.5" fill="#8494a4" text-anchor="middle">0h</text>
<line x1="270.5" y1="610" x2="270.5" y2="800" stroke="#e8edf2"/>
<text x="270.5" y="818" font-size="11.5" fill="#8494a4" text-anchor="middle">1h</text>
<line x1="462.9" y1="610" x2="462.9" y2="800" stroke="#e8edf2"/>
<text x="462.9" y="818" font-size="11.5" fill="#8494a4" text-anchor="middle">2h</text>
<line x1="655.4" y1="610" x2="655.4" y2="800" stroke="#e8edf2"/>
<text x="655.4" y="818" font-size="11.5" fill="#8494a4" text-anchor="middle">3h</text>
<line x1="847.9" y1="610" x2="847.9" y2="800" stroke="#e8edf2"/>
<text x="847.9" y="818" font-size="11.5" fill="#8494a4" text-anchor="middle">4h</text>
<line x1="1040.4" y1="610" x2="1040.4" y2="800" stroke="#e8edf2"/>
<text x="1040.4" y="818" font-size="11.5" fill="#8494a4" text-anchor="middle">5h</text>
<path d="M78.0,749.6 L94.0,761.2 L110.1,764.3 L126.1,744.5 L142.2,758.6 L158.2,759.6 L174.2,739.3 L190.3,763.0 L206.3,754.4 L222.4,780.6 L238.4,774.6 L254.4,765.4 L270.5,761.5 L286.5,776.1 L302.6,777.0 L318.6,774.5 L334.6,777.5 L350.7,756.7 L366.7,768.6 L382.7,746.1 L398.8,765.6 L414.8,766.6 L430.9,760.3 L446.9,769.8 L462.9,726.7 L479.0,610.0 L495.0,709.7 L511.1,778.3 L527.1,754.2 L543.1,759.8 L559.2,779.2 L575.2,755.4 L591.3,722.6 L607.3,738.1 L623.3,753.5 L639.4,744.9 L655.4,722.9 L671.5,757.7 L687.5,769.8 L703.5,774.5 L719.6,754.3 L735.6,751.8 L751.7,713.2 L767.7,744.7 L783.7,772.4 L799.8,781.2 L815.8,760.3 L831.9,760.4 L847.9,710.2 L863.9,721.3 L880.0,727.7 L896.0,782.6 L912.1,732.4 L928.1,708.5 L944.1,722.4 L960.2,768.8 L976.2,766.1 L992.2,761.9 L1008.3,762.4 L1024.3,783.5 L1040.4,747.0 L1056.4,714.0 L1072.4,778.5 L1088.5,782.8 L1104.5,781.2 L1120.6,786.5 L1136.6,780.4" fill="none" stroke="#c0392b" stroke-width="1.7" opacity=".9"/>
<path d="M78.0,787.1 L94.0,784.5 L110.1,783.7 L126.1,779.7 L142.2,781.3 L158.2,779.7 L174.2,774.5 L190.3,780.3 L206.3,779.3 L222.4,785.7 L238.4,780.8 L254.4,780.5 L270.5,783.1 L286.5,781.4 L302.6,786.0 L318.6,783.5 L334.6,784.9 L350.7,781.8 L366.7,779.8 L382.7,784.5 L398.8,782.1 L414.8,780.0 L430.9,784.8 L446.9,783.1 L462.9,769.3 L479.0,774.2 L495.0,779.5 L511.1,783.9 L527.1,783.5 L543.1,785.2 L559.2,783.8 L575.2,784.8 L591.3,771.8 L607.3,779.8 L623.3,782.6 L639.4,779.6 L655.4,783.1 L671.5,783.1 L687.5,782.3 L703.5,786.4 L719.6,770.9 L735.6,788.0 L751.7,780.6 L767.7,782.8 L783.7,779.7 L799.8,792.1 L815.8,784.0 L831.9,782.0 L847.9,778.1 L863.9,779.9 L880.0,783.4 L896.0,786.3 L912.1,774.9 L928.1,781.0 L944.1,786.0 L960.2,782.9 L976.2,789.7 L992.2,788.3 L1008.3,781.0 L1024.3,790.2 L1040.4,780.8 L1056.4,785.5 L1072.4,789.7 L1088.5,783.9" fill="none" stroke="#0b5d7a" stroke-width="1.7" opacity=".9"/>
<rect x="78" y="610" width="1074" height="190" fill="none" stroke="#cbd5e0"/>
<text x="26" y="705.0" font-size="12" fill="#5b6b7c" text-anchor="middle" transform="rotate(-90 26 705.0)">|error| bpm</text>
<text x="78" y="886" font-size="11.5" fill="#8494a4">Ultra 2: MAE 0.56 bpm · 99.8% within ±3    |    Series 10: MAE 1.47 bpm · 87.3% within ±3, max error 22 bpm</text>
</svg>